<svg width="720" height="347" viewBox="0 0 720 347" fill="none" xmlns="http://www.w3.org/2000/svg">
<rect x="63.6406" y="-138" width="15" height="642" transform="rotate(21.15 63.6406 -138)" fill="white" fill-opacity="0.05"/>
<rect x="100.641" y="-138" width="15" height="642" transform="rotate(21.15 100.641 -138)" fill="white" fill-opacity="0.05"/>
<rect x="137.641" y="-138" width="15" height="642" transform="rotate(21.15 137.641 -138)" fill="white" fill-opacity="0.05"/>
<rect x="174.641" y="-138" width="15" height="642" transform="rotate(21.15 174.641 -138)" fill="white" fill-opacity="0.05"/>
<rect x="211.641" y="-138" width="15" height="642" transform="rotate(21.15 211.641 -138)" fill="white" fill-opacity="0.05"/>
<rect x="248.641" y="-138" width="15" height="642" transform="rotate(21.15 248.641 -138)" fill="white" fill-opacity="0.05"/>
<rect x="285.641" y="-138" width="15" height="642" transform="rotate(21.15 285.641 -138)" fill="white" fill-opacity="0.05"/>
<rect x="322.641" y="-138" width="15" height="642" transform="rotate(21.15 322.641 -138)" fill="white" fill-opacity="0.05"/>
<rect x="359.641" y="-138" width="15" height="642" transform="rotate(21.15 359.641 -138)" fill="white" fill-opacity="0.05"/>
<rect x="396.641" y="-138" width="15" height="642" transform="rotate(21.15 396.641 -138)" fill="white" fill-opacity="0.05"/>
<rect x="433.641" y="-138" width="15" height="642" transform="rotate(21.15 433.641 -138)" fill="white" fill-opacity="0.05"/>
<rect x="470.641" y="-138" width="15" height="642" transform="rotate(21.15 470.641 -138)" fill="white" fill-opacity="0.05"/>
<rect x="507.641" y="-138" width="15" height="642" transform="rotate(21.15 507.641 -138)" fill="white" fill-opacity="0.05"/>
<rect x="544.641" y="-138" width="15" height="642" transform="rotate(21.15 544.641 -138)" fill="white" fill-opacity="0.05"/>
<rect x="581.641" y="-138" width="15" height="642" transform="rotate(21.15 581.641 -138)" fill="white" fill-opacity="0.05"/>
<rect x="618.641" y="-138" width="15" height="642" transform="rotate(21.15 618.641 -138)" fill="white" fill-opacity="0.05"/>
<rect x="655.641" y="-138" width="15" height="642" transform="rotate(21.15 655.641 -138)" fill="white" fill-opacity="0.05"/>
<rect x="692.641" y="-138" width="15" height="642" transform="rotate(21.15 692.641 -138)" fill="white" fill-opacity="0.05"/>
<rect x="729.641" y="-138" width="15" height="642" transform="rotate(21.15 729.641 -138)" fill="white" fill-opacity="0.05"/>
<rect x="766.641" y="-138" width="15" height="642" transform="rotate(21.15 766.641 -138)" fill="white" fill-opacity="0.05"/>
<rect x="803.641" y="-138" width="15" height="642" transform="rotate(21.15 803.641 -138)" fill="white" fill-opacity="0.05"/>
<rect x="840.641" y="-138" width="15" height="642" transform="rotate(21.15 840.641 -138)" fill="white" fill-opacity="0.05"/>
<rect x="877.641" y="-138" width="15" height="642" transform="rotate(21.15 877.641 -138)" fill="white" fill-opacity="0.05"/>
</svg>
