<svg width="100" height="100" viewBox="0 0 100 100" fill="none" xmlns="http://www.w3.org/2000/svg">
<path d="M24.9999 25C23.3423 25 21.7526 25.6585 20.5805 26.8306C19.4084 28.0027 18.7499 29.5924 18.7499 31.25L18.7499 46.5125C18.7499 48.1701 19.4084 49.7598 20.5805 50.9319C21.7526 52.104 23.3423 52.7625 24.9999 52.7625L33.6749 52.7625C33.6749 54.9562 33.5436 57.1562 33.2874 59.35C32.8999 61.675 32.2499 63.7437 31.3499 65.55C30.4436 67.3625 29.2811 68.7812 27.8561 69.8187C26.4374 70.9812 24.6311 71.5625 22.4311 71.5625L22.4311 81.25C26.0499 81.25 29.2124 80.475 31.9311 78.925C34.6262 77.3907 36.9434 75.2722 38.7124 72.725C40.4879 69.9168 41.7965 66.8394 42.5874 63.6125C43.3844 60.0515 43.7744 56.4115 43.7499 52.7625L43.7499 31.25C43.7499 29.5924 43.0914 28.0027 41.9193 26.8306C40.7472 25.6585 39.1575 25 37.4999 25L24.9999 25ZM62.4999 25C60.8423 25 59.2526 25.6585 58.0805 26.8306C56.9084 28.0027 56.2499 29.5924 56.2499 31.25L56.2499 46.5125C56.2499 48.1701 56.9084 49.7598 58.0805 50.9319C59.2526 52.104 60.8423 52.7625 62.4999 52.7625L71.1749 52.7625C71.1749 54.9562 71.0436 57.1562 70.7874 59.35C70.3999 61.675 69.7499 63.7437 68.8499 65.55C67.9436 67.3625 66.7811 68.7812 65.3561 69.8187C63.9374 70.9812 62.1311 71.5625 59.9311 71.5625L59.9311 81.25C63.5499 81.25 66.7124 80.475 69.4311 78.925C72.1262 77.3907 74.4434 75.2722 76.2124 72.725C77.9879 69.9168 79.2965 66.8394 80.0874 63.6125C80.8844 60.0515 81.2744 56.4115 81.2499 52.7625L81.2499 31.25C81.2499 29.5924 80.5914 28.0027 79.4193 26.8306C78.2472 25.6585 76.6575 25 74.9999 25L62.4999 25Z" fill="#FFD33E"/>
</svg>
