<svg width="432" height="333" viewBox="0 0 432 333" fill="none" xmlns="http://www.w3.org/2000/svg">
<path d="M419.019 276.37C425.969 276.37 431.639 270.8 431.749 263.85C432.279 229.21 435.069 178.1 369.829 163.97C317.029 152.53 348.339 58.7 206.139 64.76C104.069 69.11 131.179 155.15 51.8191 162.31C-0.990925 167.08 -1.45092 233.87 0.579076 264.47C1.01908 271.16 6.57908 276.36 13.2891 276.36H419.019V276.37Z" fill="#B5DFEA"/>
<path opacity="0.55" d="M369.829 163.96C317.029 152.52 348.339 58.69 206.139 64.75C181.859 65.78 164.899 71.45 152.069 79.56C156.389 78.99 160.979 78.59 165.869 78.39C308.059 72.33 276.759 166.16 329.559 177.6C394.109 191.58 392.069 241.75 391.499 276.36H419.019C425.969 276.36 431.639 270.79 431.749 263.84C432.279 229.2 435.069 178.09 369.829 163.96Z" fill="#90CEDD"/>
<path d="M306.729 60.76L139.779 41.27C132.649 40.44 126.189 45.55 125.349 52.68L112.889 159.43C112.059 166.56 117.169 173.02 124.299 173.86L291.249 193.35C298.379 194.18 304.839 189.07 305.679 181.94L318.139 75.19C318.969 68.06 313.859 61.6 306.729 60.76Z" fill="#D7F0F9"/>
<path d="M316.909 85.75L318.139 75.18C318.969 68.05 313.859 61.59 306.729 60.75L139.779 41.26C132.649 40.43 126.189 45.54 125.349 52.67L124.119 63.24L316.899 85.74L316.909 85.75Z" fill="#0582C1"/>
<path d="M151.139 127.89L172.299 90.6C173.659 88.21 176.309 86.87 179.039 87.18C182.789 87.62 185.479 91.01 185.039 94.76L180.639 132.48L180.829 132.5C183.429 132.8 185.289 135.16 184.989 137.75C184.689 140.35 182.329 142.21 179.739 141.91L179.549 141.89L178.749 148.76C178.419 151.57 175.879 153.58 173.079 153.25C170.269 152.92 168.259 150.38 168.589 147.58L169.389 140.71L154.149 138.93C151.549 138.63 149.679 136.27 149.989 133.67L150.389 130.21C150.489 129.39 150.739 128.61 151.149 127.89H151.139ZM170.549 130.68L173.279 107.29C173.299 107.13 173.079 107.06 172.999 107.2L160.499 129.26C160.279 129.65 160.529 130.14 160.969 130.19L169.859 131.23C170.199 131.27 170.509 131.02 170.549 130.68Z" fill="#79C9E8"/>
<path d="M244.529 138.79L265.689 101.5C267.049 99.11 269.699 97.77 272.429 98.08C276.179 98.52 278.869 101.91 278.429 105.66L274.029 143.38L274.219 143.4C276.819 143.7 278.679 146.06 278.379 148.65C278.079 151.25 275.719 153.11 273.129 152.81L272.939 152.79L272.139 159.66C271.809 162.47 269.269 164.48 266.469 164.15C263.659 163.82 261.649 161.28 261.979 158.48L262.779 151.61L247.539 149.83C244.939 149.53 243.069 147.17 243.379 144.57L243.779 141.11C243.879 140.29 244.129 139.51 244.539 138.79H244.529ZM263.939 141.58L266.669 118.19C266.689 118.03 266.469 117.96 266.389 118.1L253.889 140.16C253.669 140.55 253.919 141.04 254.359 141.09L263.249 142.13C263.589 142.17 263.899 141.92 263.939 141.58Z" fill="#79C9E8"/>
<path d="M202.549 105.95C203.779 95.41 210.029 90.04 220.199 91.22C230.359 92.41 235.209 99.08 233.979 109.61L229.979 143.86C228.749 154.4 222.499 159.77 212.329 158.59C202.169 157.4 197.319 150.73 198.549 140.2L202.549 105.95ZM208.829 142.07C208.279 146.77 210.139 148.8 213.439 149.19C216.729 149.57 219.009 148.03 219.559 143.32L223.709 107.75C224.259 103.05 222.399 101.02 219.099 100.63C215.809 100.25 213.529 101.79 212.979 106.5L208.829 142.07Z" fill="#79C9E8"/>
<path d="M143.809 56.02C143.589 57.94 141.849 59.31 139.929 59.09C138.009 58.87 136.639 57.13 136.859 55.21C137.079 53.29 138.819 51.92 140.739 52.14C142.659 52.36 144.029 54.1 143.809 56.02Z" fill="white"/>
<path d="M160.549 57.98C160.329 59.9 158.589 61.27 156.669 61.05C154.749 60.83 153.379 59.09 153.599 57.17C153.819 55.25 155.559 53.88 157.479 54.1C159.399 54.32 160.769 56.06 160.549 57.98Z" fill="#79C9E8"/>
<path d="M177.909 60C177.689 61.92 175.949 63.29 174.029 63.07C172.109 62.85 170.739 61.11 170.959 59.19C171.179 57.27 172.919 55.9 174.839 56.12C176.759 56.34 178.129 58.08 177.909 60Z" fill="#FFBF4D"/>
<path d="M110.749 181.6C110.749 181.6 108.489 191.6 108.869 201.82C109.209 210.97 108.119 271.13 108.119 271.13H115.469C115.469 271.13 125.929 224.01 126.319 220.29C126.709 216.57 131.969 179.36 131.969 179.36L110.749 181.6Z" fill="#00668E"/>
<path d="M115.639 178.86C115.639 178.86 117.329 191.71 120.209 200.85C123.089 209.98 137.219 271.14 137.219 271.14H144.569C144.569 271.14 143.219 224.02 142.709 220.3C142.199 216.58 138.479 179.37 138.479 179.37L115.649 178.86H115.639Z" fill="#0582C1"/>
<path d="M137.809 271.12V276.25H151.799C152.589 276.25 152.909 275.22 152.239 274.78C150.189 273.42 146.919 271.54 143.869 271.12H137.809Z" fill="#0582C1"/>
<path d="M108.499 271.12V276.25H122.489C123.279 276.25 123.599 275.22 122.929 274.78C120.879 273.42 117.609 271.54 114.559 271.12H108.499Z" fill="#0582C1"/>
<path d="M133.729 119.07C133.729 119.07 138.539 111.76 133.019 111.05C128.779 110.5 127.029 111.77 127.029 111.77C127.029 111.77 122.149 111.23 119.469 113.55C117.639 115.14 110.919 127.45 121.789 131.9C132.659 136.35 130.339 124.95 130.339 124.95L133.729 119.07Z" fill="#00668E"/>
<path d="M133.019 111.05C128.779 110.5 127.029 111.77 127.029 111.77C127.029 111.77 122.149 111.23 119.469 113.55C117.639 115.14 110.919 127.45 121.789 131.9C126.899 133.99 129.089 132.58 129.989 130.5C119.679 133.4 118.559 120.97 120.259 117.44C121.989 113.85 126.129 115.5 126.129 115.5C127.749 111.42 133.039 111.86 135.219 112.18C134.819 111.61 134.129 111.2 133.019 111.05Z" fill="#05556D"/>
<path d="M126.959 122.63C126.959 122.63 125.529 121.2 124.469 122.63C123.399 124.06 124.109 127.26 125.899 127.44C125.899 127.44 125.369 132.07 121.799 131.89V135.63H130.169V132.78C130.169 132.78 135.339 130.64 135.159 126.37C134.979 122.09 133.729 119.06 133.729 119.06C133.729 119.06 130.879 122.27 126.959 122.62V122.63Z" fill="#F98D3D"/>
<path d="M128.239 133.98C129.069 134.33 128.919 134.85 128.959 135.63H130.159V132.78C130.159 132.78 128.129 133.42 125.159 131.73C125.159 131.73 126.889 133.42 128.239 133.98Z" fill="#ED701B"/>
<path d="M129.959 115.81C129.959 115.81 125.619 114.08 125.109 115.38C124.779 116.23 125.619 116.96 126.779 117.7L125.759 117.87C125.529 117.91 125.449 118.2 125.629 118.34C125.909 118.57 126.699 118.72 128.339 118.78L129.959 115.81Z" fill="#F98D3D"/>
<path d="M160.959 126.68C152.679 120.55 130.079 115.64 130.079 115.64L128.219 119.03C128.219 119.03 148.739 126.98 147.389 128.17C146.589 128.87 136.569 133.46 133.169 135.01C132.439 135.34 131.649 135.5 130.839 135.49L120.449 135.43C120.449 135.43 112.949 134.54 107.059 141.31C101.789 147.38 92.8291 161.43 92.8291 161.43L107.929 183.63L109.599 186.08V186.05V186.26C109.599 186.26 110.139 186.32 111.089 186.41C115.939 186.86 131.499 188.09 139.729 186.34L139.959 186.29L139.569 149.87C152.709 139.47 158.989 131.43 161.229 128.91C161.819 128.24 161.709 127.22 160.989 126.68H160.959ZM110.299 176.35L108.829 173.13L104.139 162.88L111.919 154.16L110.519 173.29L110.299 176.35Z" fill="#FFBF4D"/>
<path d="M108.829 173.13L110.299 176.35L109.589 186.06L109.569 186.09L107.899 183.64L108.829 173.13Z" fill="#EFAA3A"/>
<g style="mix-blend-mode:multiply" opacity="0.29">
<path d="M136.019 148.57C134.619 149.59 134.979 158.59 134.629 164.22C134.049 173.65 133.489 181.81 133.899 187.07C136.029 186.93 138.009 186.7 139.689 186.34L139.919 186.29L139.529 149.87C152.669 139.47 158.949 131.43 161.189 128.91C161.779 128.24 161.669 127.22 160.949 126.68C160.949 126.68 150.559 138.01 136.019 148.57Z" fill="#F98D2B"/>
</g>
<path d="M142.699 220.3C142.329 217.62 140.289 197.5 139.189 186.5L133.909 187.08C133.909 187.08 141.609 250.41 142.119 271.14H144.559C144.559 271.14 143.209 224.02 142.699 220.3Z" fill="#00668E"/>
<path d="M108.839 123.67L107.249 120.82C108.049 119.32 108.499 117.6 108.499 115.78C108.499 109.83 103.669 105 97.719 105C91.769 105 86.939 109.83 86.939 115.78C86.939 121.73 91.769 126.56 97.719 126.56C100.719 126.56 103.429 125.33 105.379 123.36L108.839 123.67Z" fill="#0582C1"/>
<path d="M92.1091 114.8H92.5291V116.3C92.5291 116.76 92.6691 116.96 92.9891 116.96C93.2391 116.96 93.4191 116.83 93.6491 116.55V114.8H94.0591V117.26H93.7191L93.6791 116.88H93.6591C93.4291 117.15 93.1891 117.33 92.8491 117.33C92.3291 117.33 92.0991 117 92.0991 116.37V114.81L92.1091 114.8Z" fill="white"/>
<path d="M95.8189 117.46V118.29H95.3989V114.79H95.7389L95.7689 115.07H95.7889C96.0089 114.88 96.2889 114.73 96.5689 114.73C97.1989 114.73 97.5389 115.22 97.5389 115.98C97.5389 116.81 97.0389 117.31 96.4789 117.31C96.2489 117.31 96.0189 117.2 95.7989 117.03V117.46H95.8189ZM96.4189 116.96C96.8189 116.96 97.1189 116.59 97.1189 115.98C97.1189 115.44 96.9389 115.07 96.4689 115.07C96.2589 115.07 96.0489 115.19 95.8089 115.4V116.69C96.0289 116.88 96.2489 116.95 96.4089 116.95L96.4189 116.96Z" fill="white"/>
<path d="M98.649 116.7C98.859 116.87 99.079 116.99 99.369 116.99C99.689 116.99 99.859 116.82 99.859 116.61C99.859 116.36 99.569 116.25 99.299 116.14C98.949 116.01 98.569 115.85 98.569 115.43C98.569 115.01 98.879 114.73 99.409 114.73C99.719 114.73 99.989 114.86 100.169 115.01L99.969 115.27C99.799 115.14 99.629 115.05 99.409 115.05C99.099 115.05 98.959 115.22 98.959 115.4C98.959 115.63 99.229 115.72 99.509 115.83C99.859 115.96 100.259 116.11 100.259 116.57C100.259 116.97 99.939 117.3 99.359 117.3C99.009 117.3 98.679 117.15 98.439 116.96L98.649 116.68V116.7Z" fill="white"/>
<path d="M101.559 116.68C101.719 116.68 101.859 116.81 101.859 117C101.859 117.18 101.719 117.31 101.559 117.31C101.399 117.31 101.259 117.18 101.259 117C101.259 116.81 101.399 116.68 101.559 116.68Z" fill="white"/>
<path d="M103.329 116.68C103.489 116.68 103.629 116.81 103.629 117C103.629 117.18 103.489 117.31 103.329 117.31C103.169 117.31 103.029 117.18 103.029 117C103.029 116.81 103.169 116.68 103.329 116.68Z" fill="white"/>
<path d="M67.5087 253.3C67.5087 253.3 65.2487 251.18 66.7687 243.16C68.2887 235.14 72.1487 227.43 70.2487 218.73C68.3587 210.02 53.5187 188.08 53.4787 186.62C53.4287 185.16 48.8987 212.15 56.5687 222.79C64.2387 233.42 65.1587 237.11 64.8187 242.71C64.4787 248.3 64.8987 252.81 65.7387 254.11L67.5087 253.32V253.3Z" fill="#79C9E8"/>
<path d="M66.0987 237.17C65.2087 240.75 64.6687 249.72 66.0987 251.87C66.2287 252.07 66.4187 251.96 66.6587 251.59C66.2287 250.11 65.9388 247.51 66.7588 243.17C68.2788 235.15 72.1387 227.44 70.2387 218.74C68.3487 210.03 53.5087 188.09 53.4688 186.63C53.4688 186.63 55.7087 204.92 63.2287 217.5C68.6187 226.51 66.9887 233.6 66.0987 237.18V237.17Z" fill="#49B4D6"/>
<path d="M70.209 252.75C70.209 252.75 65.849 241.87 73.239 232.45C80.629 223.03 92.439 210.93 92.669 206.14C92.669 206.14 95.709 228.89 86.089 235.33C76.479 241.77 69.739 242.8 71.399 252.71L70.209 252.75Z" fill="#79C9E8"/>
<path d="M80.5889 230.76C69.8689 238.56 68.9989 247.55 70.6589 251.72C70.7889 252.04 71.0289 252.24 71.3589 252.35C69.9189 242.79 76.6089 241.7 86.0989 235.34C95.7089 228.9 92.6789 206.15 92.6789 206.15C92.6789 206.15 91.3189 222.97 80.5989 230.77L80.5889 230.76Z" fill="#49B4D6"/>
<path d="M63.0388 252.99C63.0388 252.99 64.4388 247.23 63.6888 241.01C62.9488 234.79 56.4488 231.29 50.3788 224.72C47.2588 221.34 46.3288 203.47 48.2688 201.81C48.2688 201.81 37.5488 214.8 39.2088 224.31C40.8588 233.82 58.3488 240 59.9688 244.6C61.5888 249.2 61.4488 253.05 61.4488 253.05L63.0388 253V252.99Z" fill="#79C9E8"/>
<path d="M44.6486 206.92C41.1086 216.51 44.7386 228.13 56.5086 235.35C65.1686 240.66 62.4086 251.71 62.4086 251.71L63.8286 247.35C63.9586 245.47 63.9686 243.27 63.6986 241.01C62.9586 234.79 56.4586 231.29 50.3886 224.72C47.3786 221.46 46.4086 204.72 48.0786 202.05C47.5886 202.67 46.1986 204.47 44.6486 206.92Z" fill="#49B4D6"/>
<path d="M48.0786 202.05C48.1986 201.9 48.2686 201.81 48.2686 201.81C48.1986 201.87 48.1386 201.95 48.0786 202.05Z" fill="#49B4D6"/>
<path d="M72.4487 252.27C72.4487 252.27 74.9587 242.95 81.1787 241.69C87.3887 240.44 94.5287 231.25 94.9087 229.45C94.9087 229.45 93.8587 246.76 72.4487 252.26V252.27Z" fill="#79C9E8"/>
<path d="M80.8186 244.78C77.0086 246.68 75.4287 249.24 74.8687 251.57C93.9287 245.44 94.9086 229.46 94.9086 229.46C94.8286 229.82 94.4887 230.47 93.9387 231.28C92.0687 234.56 87.5386 241.41 80.8186 244.78Z" fill="#49B4D6"/>
<path d="M85.8987 248.84H53.4087L57.2687 273.11C57.5587 274.95 59.1487 276.31 61.0087 276.31H78.2987C80.1587 276.31 81.7487 274.96 82.0387 273.11L85.8987 248.84Z" fill="#FFBF4D"/>
<path d="M85.2589 252.86L85.8989 248.84H53.3989L54.0389 252.86H85.2589Z" fill="#FF9F50"/>
<path d="M78.0189 248.84L74.1589 273.11C73.8689 274.95 72.2789 276.31 70.4189 276.31H78.2889C80.1489 276.31 81.7389 274.96 82.0289 273.11L85.8889 248.84H78.0189Z" fill="#FF9F50"/>
<path d="M310.019 205.56H163.159V235.42H310.019V205.56Z" fill="#FFBF4D"/>
<g style="mix-blend-mode:multiply" opacity="0.29">
<path d="M310.019 205.56H163.159V212.81H310.019V205.56Z" fill="#F98D2B"/>
</g>
<path d="M175.929 205.56H189.339L185.739 212.81H172.329L175.929 205.56Z" fill="#F77E2D"/>
<path d="M206.129 205.56H219.539L215.939 212.81H202.539L206.129 205.56Z" fill="#F77E2D"/>
<path d="M236.329 205.56H249.729L246.139 212.81H232.739L236.329 205.56Z" fill="#F77E2D"/>
<path d="M266.529 205.56H279.929L276.329 212.81H262.939L266.529 205.56Z" fill="#F77E2D"/>
<path d="M310.029 205.56V205.76L306.529 212.81H293.139L296.729 205.56H310.029Z" fill="#F77E2D"/>
<path d="M191.789 235.42H181.439V276.25H191.789V235.42Z" fill="#79C9E8"/>
<path d="M191.799 235.42H189.449V276.25H191.799V235.42Z" fill="#49B4D6"/>
<path d="M292.549 235.42H282.199V276.25H292.549V235.42Z" fill="#79C9E8"/>
<path d="M292.549 235.42H289.489V276.25H292.549V235.42Z" fill="#49B4D6"/>
<path d="M191.789 235.39H181.439V240.53H191.789V235.39Z" fill="#49B4D6"/>
<path d="M292.549 235.39H282.199V240.53H292.549V235.39Z" fill="#49B4D6"/>
<path d="M191.789 200.89H181.439V205.53H191.789V200.89Z" fill="#79C9E8"/>
<path d="M191.799 200.89H189.449V205.53H191.799V200.89Z" fill="#49B4D6"/>
<path d="M292.549 200.89H282.199V205.53H292.549V200.89Z" fill="#79C9E8"/>
<path d="M292.549 200.89H289.489V205.53H292.549V200.89Z" fill="#49B4D6"/>
<path d="M191.789 204.95H181.439V205.53H191.789V204.95Z" fill="#49B4D6"/>
<path d="M292.549 204.95H282.199V205.53H292.549V204.95Z" fill="#49B4D6"/>
<path d="M189.339 205.56L174.519 235.42H163.159V231.3L175.929 205.56H189.339Z" fill="#0582C1"/>
<path d="M206.129 205.56L191.319 235.42H204.719L219.539 205.56H206.129Z" fill="#0582C1"/>
<path d="M249.729 205.56L234.919 235.42H221.519L236.329 205.56H249.729Z" fill="#0582C1"/>
<path d="M279.929 205.56L265.119 235.42H251.719L266.529 205.56H279.929Z" fill="#0582C1"/>
<path d="M296.729 205.56L281.919 235.42H295.319L310.029 205.76L296.729 205.56Z" fill="#0582C1"/>
<path d="M189.339 205.56L185.739 212.81H172.329L175.929 205.56H189.339Z" fill="#00668E"/>
<path d="M219.539 205.56L215.939 212.81H202.539L206.129 205.56H219.539Z" fill="#00668E"/>
<path d="M249.729 205.56L246.139 212.81H232.739L236.329 205.56H249.729Z" fill="#00668E"/>
<path d="M279.929 205.56L276.329 212.81H262.939L266.529 205.56H279.929Z" fill="#00668E"/>
<path d="M310.029 205.76L306.529 212.81H293.139L296.729 205.56L310.029 205.76Z" fill="#00668E"/>
<path style="mix-blend-mode:overlay" opacity="0.55" d="M307.489 218.48H167.249V233.42H307.489V218.48Z" fill="url(#paint0_linear_401_135)"/>
<path d="M187.815 203.539C192.847 202.72 196.262 197.978 195.443 192.947C194.625 187.915 189.882 184.5 184.851 185.318C179.82 186.137 176.404 190.879 177.223 195.911C178.041 200.942 182.784 204.357 187.815 203.539Z" fill="#FFBF4D"/>
<path d="M190.529 194.41C190.529 192.1 188.659 190.23 186.349 190.23C184.039 190.23 182.169 192.1 182.169 194.41C182.169 196.72 184.039 198.59 186.349 198.59C188.659 198.59 190.529 196.72 190.529 194.41Z" fill="#0582C1"/>
<path d="M288.775 203.548C293.806 202.729 297.222 197.987 296.403 192.955C295.585 187.924 290.842 184.509 285.811 185.327C280.779 186.146 277.364 190.888 278.183 195.92C279.001 200.951 283.744 204.366 288.775 203.548Z" fill="#FFBF4D"/>
<path d="M291.489 194.41C291.489 192.1 289.619 190.23 287.309 190.23C284.999 190.23 283.129 192.1 283.129 194.41C283.129 196.72 284.999 198.59 287.309 198.59C289.619 198.59 291.489 196.72 291.489 194.41Z" fill="#0582C1"/>
<path d="M365.669 273.08H318.899L326.049 255.74L328.929 248.73L329.719 246.81L331.009 243.69L331.269 243.05L334.149 236.05L334.679 234.78L339.779 222.4C340.699 220.17 343.859 220.17 344.779 222.4L349.879 234.78L350.409 236.05L353.289 243.05L353.549 243.69L354.839 246.81L355.629 248.73L358.509 255.73L365.659 273.08H365.669Z" fill="#FFBF4D"/>
<g style="mix-blend-mode:multiply" opacity="0.29">
<path d="M321.959 265.65L318.889 273.08H365.669L362.609 265.65H321.959Z" fill="#F98D2B"/>
</g>
<path d="M368.719 268.64H315.149V276.21H368.719V268.64Z" fill="#79C9E8"/>
<path d="M368.719 268.64H357.149V276.21H368.719V268.64Z" fill="#49B4D6"/>
<g style="mix-blend-mode:multiply" opacity="0.29">
<path d="M363.829 268.64H357.209L351.899 255.75L349.019 248.74L348.229 246.82L346.939 243.7L346.679 243.06L343.799 236.06L343.269 234.79L338.979 224.37L339.779 222.41C340.699 220.18 343.859 220.18 344.779 222.41L349.879 234.79L350.409 236.06L353.289 243.06L353.549 243.7L354.839 246.82L355.629 248.74L358.509 255.74L363.819 268.64H363.829Z" fill="#F98D2B"/>
</g>
<path d="M353.279 243.06H331.269L334.149 236.06H350.409L353.279 243.06Z" fill="#0582C1"/>
<path d="M358.509 255.73V255.74H326.049V255.73L328.919 248.73H355.629L358.509 255.73Z" fill="#0582C1"/>
<path d="M353.279 243.06H346.669L343.789 236.06H350.409L353.279 243.06Z" fill="#00668E"/>
<path d="M358.509 255.73V255.74H351.889V255.73L349.019 248.73H355.629L358.509 255.73Z" fill="#00668E"/>
<path d="M67.5189 103.02C71.0089 103.02 74.0489 100.48 74.5289 97.02C74.6089 96.4 74.6589 95.76 74.6589 95.12C74.6589 87.41 68.4089 81.16 60.6989 81.16C60.3789 81.16 60.0689 81.17 59.7589 81.19C59.1189 73.59 52.7489 67.62 44.9889 67.62C36.7989 67.62 30.1589 74.26 30.1589 82.45C30.1589 82.81 30.1789 83.17 30.1989 83.53C27.8789 82.23 25.1689 81.54 22.2889 81.67C14.8389 82.01 8.71892 87.97 8.18892 95.41C8.18892 95.47 8.18892 95.53 8.17892 95.59C7.93892 99.63 11.2089 103.03 15.2589 103.03H67.5189V103.02Z" fill="#D7F0F9"/>
<path d="M400.649 113.98C411.689 113.98 412.299 97.37 401.269 96.83C400.969 96.82 400.669 96.81 400.359 96.81C398.389 96.81 396.499 97.12 394.719 97.69C393.239 88.7 385.439 81.84 376.029 81.84C366.619 81.84 358.479 89.01 357.259 98.29C354.979 97.2 352.419 96.58 349.719 96.58C348.209 96.58 346.749 96.77 345.349 97.13C335.699 99.62 337.719 113.98 347.689 113.98H400.639H400.649Z" fill="#D7F0F9"/>
<path d="M268.099 32.13C279.129 32.13 279.749 15.52 268.719 14.99C268.419 14.98 268.119 14.97 267.809 14.97C265.839 14.97 263.949 15.28 262.169 15.85C260.689 6.85999 252.889 0 243.489 0C234.089 0 225.939 7.17 224.719 16.45C222.439 15.36 219.879 14.74 217.189 14.74C215.679 14.74 214.219 14.93 212.819 15.29C203.169 17.77 205.199 32.13 215.159 32.13H268.089H268.099Z" fill="#D7F0F9"/>
<path d="M92.409 62.82C107.017 62.82 118.859 50.9779 118.859 36.37C118.859 21.7621 107.017 9.92 92.409 9.92C77.801 9.92 65.959 21.7621 65.959 36.37C65.959 50.9779 77.801 62.82 92.409 62.82Z" fill="#FFBF4D"/>
<path d="M92.6189 9.92C99.8089 14.65 104.569 22.79 104.569 32.04C104.569 46.65 92.7289 58.49 78.1189 58.49C78.0489 58.49 77.9789 58.49 77.8989 58.49C82.0689 61.23 87.0489 62.83 92.4089 62.83C107.019 62.83 118.859 50.99 118.859 36.38C118.859 21.77 107.129 10.05 92.6189 9.93V9.92Z" fill="#FF9F50"/>
<path d="M95.608 305.962V309.25H91.144V322.81H87.04V309.25H82.576V305.962H95.608ZM112.26 305.962V322.81H108.156V315.874H101.772V322.81H97.6677V305.962H101.772V312.562H108.156V305.962H112.26ZM119.326 309.25V312.658H124.822V315.826H119.326V319.522H125.542V322.81H115.222V305.962H125.542V309.25H119.326ZM137.325 305.962V316.042C137.325 317.05 137.573 317.826 138.069 318.37C138.565 318.914 139.293 319.186 140.253 319.186C141.213 319.186 141.949 318.914 142.461 318.37C142.973 317.826 143.229 317.05 143.229 316.042V305.962H147.333V316.018C147.333 317.522 147.013 318.794 146.373 319.834C145.733 320.874 144.869 321.658 143.781 322.186C142.709 322.714 141.509 322.978 140.181 322.978C138.853 322.978 137.661 322.722 136.605 322.21C135.565 321.682 134.741 320.898 134.133 319.858C133.525 318.802 133.221 317.522 133.221 316.018V305.962H137.325ZM158.807 322.81L155.303 316.45H154.319V322.81H150.215V305.962H157.103C158.431 305.962 159.559 306.194 160.487 306.658C161.431 307.122 162.135 307.762 162.599 308.578C163.063 309.378 163.295 310.274 163.295 311.266C163.295 312.386 162.975 313.386 162.335 314.266C161.711 315.146 160.783 315.77 159.551 316.138L163.439 322.81H158.807ZM154.319 313.546H156.863C157.615 313.546 158.175 313.362 158.543 312.994C158.927 312.626 159.119 312.106 159.119 311.434C159.119 310.794 158.927 310.29 158.543 309.922C158.175 309.554 157.615 309.37 156.863 309.37H154.319V313.546ZM169.975 319.642H175.351V322.81H165.871V305.962H169.975V319.642ZM186.498 305.962V322.81H182.394V305.962H186.498ZM195.568 322.978C194.336 322.978 193.232 322.778 192.256 322.378C191.28 321.978 190.496 321.386 189.904 320.602C189.328 319.818 189.024 318.874 188.992 317.77H193.36C193.424 318.394 193.64 318.874 194.008 319.21C194.376 319.53 194.856 319.69 195.448 319.69C196.056 319.69 196.536 319.554 196.888 319.282C197.24 318.994 197.416 318.602 197.416 318.106C197.416 317.69 197.272 317.346 196.984 317.074C196.712 316.802 196.368 316.578 195.952 316.402C195.552 316.226 194.976 316.026 194.224 315.802C193.136 315.466 192.248 315.13 191.56 314.794C190.872 314.458 190.28 313.962 189.784 313.306C189.288 312.65 189.04 311.794 189.04 310.738C189.04 309.17 189.608 307.946 190.744 307.066C191.88 306.17 193.36 305.722 195.184 305.722C197.04 305.722 198.536 306.17 199.672 307.066C200.808 307.946 201.416 309.178 201.496 310.762H197.056C197.024 310.218 196.824 309.794 196.456 309.49C196.088 309.17 195.616 309.01 195.04 309.01C194.544 309.01 194.144 309.146 193.84 309.418C193.536 309.674 193.384 310.05 193.384 310.546C193.384 311.09 193.64 311.514 194.152 311.818C194.664 312.122 195.464 312.45 196.552 312.802C197.64 313.17 198.52 313.522 199.192 313.858C199.88 314.194 200.472 314.682 200.968 315.322C201.464 315.962 201.712 316.786 201.712 317.794C201.712 318.754 201.464 319.626 200.968 320.41C200.488 321.194 199.784 321.818 198.856 322.282C197.928 322.746 196.832 322.978 195.568 322.978ZM224.396 322.81H220.292L213.428 312.418V322.81H209.324V305.962H213.428L220.292 316.402V305.962H224.396V322.81ZM235.339 322.978C233.755 322.978 232.299 322.61 230.971 321.874C229.659 321.138 228.611 320.114 227.827 318.802C227.059 317.474 226.675 315.986 226.675 314.338C226.675 312.69 227.059 311.21 227.827 309.898C228.611 308.586 229.659 307.562 230.971 306.826C232.299 306.09 233.755 305.722 235.339 305.722C236.923 305.722 238.371 306.09 239.683 306.826C241.011 307.562 242.051 308.586 242.803 309.898C243.571 311.21 243.955 312.69 243.955 314.338C243.955 315.986 243.571 317.474 242.803 318.802C242.035 320.114 240.995 321.138 239.683 321.874C238.371 322.61 236.923 322.978 235.339 322.978ZM235.339 319.234C236.683 319.234 237.755 318.786 238.555 317.89C239.371 316.994 239.779 315.81 239.779 314.338C239.779 312.85 239.371 311.666 238.555 310.786C237.755 309.89 236.683 309.442 235.339 309.442C233.979 309.442 232.891 309.882 232.075 310.762C231.275 311.642 230.875 312.834 230.875 314.338C230.875 315.826 231.275 317.018 232.075 317.914C232.891 318.794 233.979 319.234 235.339 319.234ZM258.358 305.962V309.25H253.894V322.81H249.79V309.25H245.326V305.962H258.358ZM276.472 305.962V309.25H269.608V312.802H274.744V315.994H269.608V322.81H265.504V305.962H276.472ZM286.597 322.978C285.013 322.978 283.557 322.61 282.229 321.874C280.917 321.138 279.869 320.114 279.085 318.802C278.317 317.474 277.933 315.986 277.933 314.338C277.933 312.69 278.317 311.21 279.085 309.898C279.869 308.586 280.917 307.562 282.229 306.826C283.557 306.09 285.013 305.722 286.597 305.722C288.181 305.722 289.629 306.09 290.941 306.826C292.269 307.562 293.309 308.586 294.061 309.898C294.829 311.21 295.213 312.69 295.213 314.338C295.213 315.986 294.829 317.474 294.061 318.802C293.293 320.114 292.253 321.138 290.941 321.874C289.629 322.61 288.181 322.978 286.597 322.978ZM286.597 319.234C287.941 319.234 289.013 318.786 289.813 317.89C290.629 316.994 291.037 315.81 291.037 314.338C291.037 312.85 290.629 311.666 289.813 310.786C289.013 309.89 287.941 309.442 286.597 309.442C285.237 309.442 284.149 309.882 283.333 310.762C282.533 311.642 282.133 312.834 282.133 314.338C282.133 315.826 282.533 317.018 283.333 317.914C284.149 318.794 285.237 319.234 286.597 319.234ZM301.528 305.962V316.042C301.528 317.05 301.776 317.826 302.272 318.37C302.768 318.914 303.496 319.186 304.456 319.186C305.416 319.186 306.152 318.914 306.664 318.37C307.176 317.826 307.432 317.05 307.432 316.042V305.962H311.536V316.018C311.536 317.522 311.216 318.794 310.576 319.834C309.936 320.874 309.072 321.658 307.984 322.186C306.912 322.714 305.712 322.978 304.384 322.978C303.056 322.978 301.864 322.722 300.808 322.21C299.768 321.682 298.944 320.898 298.336 319.858C297.728 318.802 297.424 317.522 297.424 316.018V305.962H301.528ZM329.49 322.81H325.386L318.522 312.418V322.81H314.418V305.962H318.522L325.386 316.402V305.962H329.49V322.81ZM338.777 305.962C340.553 305.962 342.105 306.314 343.433 307.018C344.761 307.722 345.785 308.714 346.505 309.994C347.241 311.258 347.609 312.722 347.609 314.386C347.609 316.034 347.241 317.498 346.505 318.778C345.785 320.058 344.753 321.05 343.409 321.754C342.081 322.458 340.537 322.81 338.777 322.81H332.465V305.962H338.777ZM338.513 319.258C340.065 319.258 341.273 318.834 342.137 317.986C343.001 317.138 343.433 315.938 343.433 314.386C343.433 312.834 343.001 311.626 342.137 310.762C341.273 309.898 340.065 309.466 338.513 309.466H336.569V319.258H338.513Z" fill="#0582C1"/>
<defs>
<linearGradient id="paint0_linear_401_135" x1="237.369" y1="244.15" x2="237.369" y2="220.1" gradientUnits="userSpaceOnUse">
<stop stop-color="white"/>
<stop offset="0.12" stop-color="white" stop-opacity="0.82"/>
<stop offset="0.3" stop-color="white" stop-opacity="0.58"/>
<stop offset="0.47" stop-color="white" stop-opacity="0.37"/>
<stop offset="0.64" stop-color="white" stop-opacity="0.21"/>
<stop offset="0.78" stop-color="white" stop-opacity="0.1"/>
<stop offset="0.91" stop-color="white" stop-opacity="0.02"/>
<stop offset="1" stop-color="white" stop-opacity="0"/>
</linearGradient>
</defs>
</svg>
