<svg width="82" height="82" viewBox="0 0 82 82" fill="none" xmlns="http://www.w3.org/2000/svg">
<g clip-path="url(#clip0_370_57)">
<path d="M4.95417 1.23854C0.0854167 3.80104 0 4.39896 0 40.8719C0 77.5156 0.0854167 77.9427 5.125 80.5906C8.79792 82.4698 73.2021 82.4698 76.875 80.5906C81.9146 77.9427 82 77.5156 82 40.8719C82 4.22812 81.9146 3.80104 76.875 1.15312C73.2021 -0.726042 8.45625 -0.726042 4.95417 1.23854ZM75.5083 6.36354C76.7042 7.47396 76.875 11.8302 76.875 40.8719C76.875 69.9135 76.7042 74.2698 75.5083 75.3802C74.3979 76.576 70.0417 76.7469 41 76.7469C11.9583 76.7469 7.60208 76.576 6.49167 75.3802C5.29583 74.2698 5.125 69.9135 5.125 40.8719C5.125 11.8302 5.29583 7.47396 6.49167 6.36354C7.60208 5.16771 11.9583 4.99687 41 4.99687C70.0417 4.99687 74.3979 5.16771 75.5083 6.36354Z" fill="white"/>
<path d="M21.4152 21.3855C20.3902 22.4105 20.7319 25.0584 22.0131 25.7418C23.0381 26.3397 22.4402 29.073 18.5964 42.0564C15.9485 50.6834 14.0694 58.2855 14.3256 58.9689C14.5819 59.7376 15.6069 60.1647 16.7173 59.9939C18.1694 59.823 18.9381 58.5418 20.561 53.0751L22.611 46.498H28.5048H34.3985L36.4485 53.0751C38.2423 58.9689 38.6694 59.7376 40.5485 59.7376C41.6589 59.7376 42.6839 59.1397 42.7694 58.4564C42.9402 57.773 40.6339 49.1459 37.6444 39.2376L32.2631 21.3001L27.1381 21.0439C24.3194 20.873 21.7569 21.0439 21.4152 21.3855ZM30.5548 33.4293C31.4944 36.6751 32.3485 39.7501 32.6048 40.2626C32.861 41.0314 31.6652 41.373 28.5048 41.373C25.3444 41.373 24.1485 41.0314 24.4048 40.2626C24.661 39.7501 25.5152 36.6751 26.4548 33.4293C27.3089 30.2689 28.2485 27.7064 28.5048 27.7064C28.761 27.7064 29.7006 30.2689 30.5548 33.4293Z" fill="white"/>
<path d="M51.9948 31.8919C47.9802 33.6003 44.7344 39.9211 44.7344 45.8148C44.7344 49.9148 47.0406 55.5523 49.6031 57.8586C53.7885 61.5315 61.6469 60.0794 65.3198 54.9544C69.0781 49.5732 65.2344 47.0961 60.6219 51.9648C59.0844 53.6732 57.1198 55.0398 56.351 55.0398C50.9698 55.0398 48.151 47.0961 51.0552 40.0919C53.1906 34.9669 58.999 35.2232 60.7927 40.4336L61.7323 42.9961L56.4365 43.2523C51.3969 43.5086 51.1406 43.594 51.1406 45.644C51.1406 47.7794 51.226 47.7794 58.8281 47.7794H66.5156L66.7719 45.3023C67.199 42.0565 64.8927 36.1628 62.3302 33.7711C60.1094 31.6357 54.7281 30.6961 51.9948 31.8919Z" fill="white"/>
</g>
<defs>
<clipPath id="clip0_370_57">
<rect width="82" height="82" fill="white"/>
</clipPath>
</defs>
</svg>
