<svg width="94" height="94" viewBox="0 0 94 94" fill="none" xmlns="http://www.w3.org/2000/svg">
<path d="M46.9998 3.76001C23.1434 3.76001 3.75977 23.1436 3.75977 47C3.75977 70.8564 23.1434 90.24 46.9998 90.24C70.8562 90.24 90.2398 70.8564 90.2398 47C90.2398 23.1436 70.8562 3.76001 46.9998 3.76001ZM46.9998 7.52001C68.8236 7.52001 86.4798 25.1762 86.4798 47C86.4798 68.8239 68.8236 86.48 46.9998 86.48C25.1759 86.48 7.51977 68.8239 7.51977 47C7.51977 25.1762 25.1759 7.52001 46.9998 7.52001ZM28.4201 32.1142C27.0721 32.1142 25.5907 32.5158 24.2672 33.3223C18.4993 36.836 14.7762 44.8519 15.5245 50.9656C15.7613 52.9077 16.5683 55.0318 18.0911 56.4588C19.1176 57.41 20.9755 58.5811 23.162 58.5811C25.5308 58.5811 27.5334 57.6696 29.3307 56.5322C30.5489 55.7539 31.5633 54.8088 32.4224 53.8444C33.0259 55.1209 34.2811 55.9814 35.5839 55.9814C36.6047 55.9814 37.5626 55.4695 38.2864 54.5163C38.5045 55.3962 39.1181 55.9814 40.2141 55.9814C41.015 55.9814 42.727 55.1831 44.3156 53.9949L44.1541 54.8431C44.1108 55.0236 44.095 55.206 44.11 55.3902C44.1589 55.7944 44.4356 55.9777 44.8003 55.9777C45.5655 55.9777 46.6805 55.2443 46.908 54.1088L47.2568 52.5005C47.7042 50.487 50.6483 47.4443 51.4868 47.4443C51.594 47.4443 51.6773 47.518 51.6961 47.6646C51.7581 48.1779 50.7608 49.8612 50.3265 52.5702C50.2438 53.0308 50.2299 53.4994 50.2788 53.9619C50.4254 55.1707 51.1421 55.9741 52.4562 55.9741C53.5917 55.9741 56.016 55.0179 57.7437 53.1247C57.8734 54.1831 58.0975 55.0866 58.434 55.6656C58.5787 55.9213 58.9081 55.9924 59.2014 55.9924C59.568 55.9924 60.0772 55.8488 60.6224 55.5555C61.9347 54.8223 63.65 53.1713 65.2894 50.7931C65.5075 50.8288 65.6863 50.8298 65.9063 50.8298C66.5624 50.8298 67.2966 50.5973 67.9772 50.1762C67.7196 51.0015 67.6243 51.8396 67.7202 52.6217C67.9514 54.5242 69.5902 55.9924 71.2672 55.9924C72.2504 55.9924 73.2128 55.4796 73.9366 54.5641C74.1566 55.7748 74.9336 57.0558 76.8117 57.8247C76.9302 57.898 77.0772 57.8981 77.1863 57.8981C77.551 57.8981 77.7745 57.6443 77.7407 57.351C77.7275 57.2382 77.6289 57.0552 77.4653 56.9104C77.0141 56.5081 76.5321 55.8099 76.4005 54.7477C76.3384 54.2344 76.369 53.6137 76.5363 52.8824C76.9443 51.1622 77.0327 50.6862 77.0063 50.4663C76.9537 50.0263 76.6403 49.842 76.2756 49.842C75.5086 49.842 74.4717 50.6084 74.201 51.6706C73.7799 53.2799 72.6345 54.3805 71.8694 54.3805C70.9219 54.3805 70.4349 53.3534 70.3052 52.2912C69.9818 49.6573 71.6616 46.3978 74.1056 46.3978C74.835 46.3978 75.5979 46.6927 75.6881 47.4259C75.8272 48.5596 74.6274 48.3016 74.6857 48.7772C74.744 49.2528 75.5652 49.4014 76.1104 49.4014C76.6575 49.4014 78.2546 49.0358 78.0271 47.1689C77.8485 45.7044 76.3028 45.0062 74.5168 45.0062C72.4187 45.0062 70.6293 46.0732 69.4092 47.5471C69.2475 47.6411 69.0775 47.803 68.8952 48.0098C68.4928 48.4873 67.7644 48.9277 66.8169 48.9277C66.7078 48.9277 66.4534 48.891 66.4534 48.891C67.07 47.6841 67.5072 46.4401 67.5072 45.3403C67.5072 43.5825 66.4155 42.7039 65.2123 42.7039C63.6819 42.7039 62.1132 44.0595 62.1132 46.6952C62.1132 48.2688 62.7319 49.5504 63.828 50.246C62.5891 52.297 60.8744 53.9839 60.6188 53.9839C60.474 53.9839 60.4415 53.8368 60.4058 53.6902C60.2234 52.9964 60.0386 51.639 60.0386 50.7967C60.0386 49.2965 60.3306 47.796 60.8758 46.1849C60.9491 46.0025 60.9859 45.8174 60.9859 45.6708C60.9859 45.2328 60.6943 45.0135 60.292 45.0135C59.493 45.0135 58.2884 45.9257 57.997 46.8788C57.7056 47.7925 57.5968 49.0386 57.5968 50.5764C57.5968 50.8622 57.6021 51.1427 57.6115 51.421C56.1263 53.3837 54.2835 54.0831 53.712 54.0831C52.9957 54.0831 52.8581 53.4919 52.9409 53.099C53.3281 51.2528 53.9128 49.1062 54.4316 47.6793C54.6742 46.9837 54.7815 46.3642 54.7364 45.9976C54.6556 45.3377 54.1781 45.0099 53.5577 45.0099C52.0989 45.0099 49.66 46.5416 48.094 48.6303L48.5934 46.3721C48.6404 46.154 48.6543 45.9661 48.6374 45.8213C48.5848 45.3814 48.3082 45.2008 47.9434 45.2008C46.1556 45.2008 45.8378 46.1073 45.6742 46.989C45.6329 47.2014 45.115 49.8902 44.6938 52.0635C43.3553 53.2648 41.9069 54.0427 41.514 54.0427C41.0177 54.0427 40.8552 53.6528 40.842 53.367C40.8232 53.0399 41.187 51.4523 41.2753 50.9767C41.3223 50.7586 41.3363 50.5762 41.3194 50.4295C41.2705 50.0253 40.9928 49.842 40.5923 49.842C39.8234 49.842 38.7829 50.5727 38.5141 51.6706C38.0892 53.2818 36.988 54.3805 36.2228 54.3805C35.2753 54.3805 34.7478 53.3581 34.6219 52.3316C34.3436 50.0587 35.7941 46.3978 38.4186 46.3978C39.148 46.3978 39.9073 46.6542 39.9975 47.3856C40.1423 48.5568 38.9771 48.264 39.0391 48.7772C39.0955 49.2528 39.9158 49.3977 40.4271 49.3977C41.0118 49.3977 42.5675 49.0312 42.3438 47.202C42.1652 45.7356 40.6571 45.0025 38.8335 45.0025C34.6186 45.0025 31.7864 49.1478 32.0552 52.4491C30.9648 53.7181 29.8769 54.4933 27.9574 55.4747C26.8576 56.0237 25.6237 56.3523 24.4581 56.3523C20.9594 56.3523 19.2502 53.1312 18.9099 50.3488C18.0376 43.2104 24.3134 33.3994 28.6881 33.3994C29.709 33.3994 30.6192 34.2849 30.7884 35.6686C31.0498 37.8193 31.0095 39.3428 28.7836 41.2021C28.5411 41.4033 28.4704 41.7336 28.5963 41.9292C28.7843 42.2206 29.3832 42.2483 30.5902 41.6354C32.9571 40.4416 33.811 38.5992 33.5497 36.4654C33.2602 34.0966 31.1912 32.1142 28.4201 32.1142ZM64.3384 44.1176C64.7388 44.1176 65.249 44.7017 65.249 46.0196C65.249 46.7171 65.1044 47.4133 64.8488 48.1089C64.1926 47.4152 63.6811 46.3521 63.6811 45.3256C63.6811 44.7767 63.8646 44.1195 64.3384 44.1176Z" fill="white"/>
</svg>
