<svg width="134" height="134" viewBox="0 0 134 134" fill="none" xmlns="http://www.w3.org/2000/svg">
<path d="M54.8886 31.6155C39.1157 39.0135 35.4865 53.9489 44.9782 73.0718C47.7698 78.7947 52.0969 85.4947 54.6094 87.8676C58.5178 92.0551 59.774 92.4739 67.0323 92.4739C74.7094 92.4739 75.2678 92.1947 80.2928 86.751C83.0844 83.5405 87.4115 76.8405 89.7844 71.676C98.299 53.5301 94.6698 39.5718 79.4553 31.8947C70.2428 27.428 64.2407 27.2885 54.8886 31.6155ZM74.0115 38.3155C78.0594 44.876 78.7573 50.878 76.8032 60.7885C74.9886 70.2801 68.7073 86.8905 67.0323 86.8905C65.3573 86.8905 59.2157 70.6989 57.2615 61.2072C54.1907 46.4114 58.7969 33.8489 67.1719 33.8489C70.2428 33.8489 71.9178 34.9655 74.0115 38.3155ZM50.7011 47.528C50.0032 53.6697 53.074 69.8614 56.7032 79.2135C57.6803 81.5864 57.5407 81.726 55.5865 80.1905C52.3761 77.678 46.2344 63.0218 45.2573 56.0426C44.699 51.2968 45.2573 48.7843 47.3511 45.2947C49.0261 42.9218 50.5615 40.828 50.8407 40.828C51.2594 40.828 51.1198 43.8989 50.7011 47.528ZM87.4115 46.6905C90.2032 52.1343 89.2261 59.951 83.9219 70.978C77.9198 83.6801 75.2678 84.6572 79.4553 72.5135C81.8282 65.3947 82.9448 59.253 82.9448 51.7155C83.0844 40.5489 83.7823 39.7114 87.4115 46.6905Z" fill="white"/>
<path d="M62.0074 97.2198C61.5887 98.3365 61.4491 100.709 61.7282 102.524C62.0074 105.176 62.9845 105.734 67.0324 105.734C71.6387 105.734 71.9178 105.455 71.9178 100.849C71.9178 96.3823 71.4991 95.9635 67.3116 95.5448C64.3803 95.2656 62.5657 95.824 62.0074 97.2198Z" fill="white"/>
</svg>
