<svg width="82" height="82" viewBox="0 0 82 82" fill="none" xmlns="http://www.w3.org/2000/svg">
<path d="M30.3399 3.28003C22.6606 3.28003 16.3999 9.54076 16.3999 17.22C16.3999 22.6325 19.5978 27.2123 24.1226 29.52C19.5978 31.8277 16.3999 36.4076 16.3999 41.82C16.3999 47.2325 19.5978 51.8123 24.1226 54.12C19.5978 56.4277 16.3999 61.0075 16.3999 66.42C16.3999 74.0993 22.6606 80.36 30.3399 80.36C38.0192 80.36 44.2799 74.0993 44.2799 66.42V54.12V48.6363C46.4797 52.8108 50.7285 55.76 55.7599 55.76C62.9865 55.76 68.8799 49.8666 68.8799 42.64C68.8799 36.7004 64.8228 31.8631 59.3922 30.2567C64.8677 28.3748 68.8799 23.3212 68.8799 17.22C68.8799 9.54076 62.6192 3.28003 54.9399 3.28003H42.6399H30.3399ZM30.3399 6.56003H40.9999V27.88H30.3399C24.4334 27.88 19.6799 23.1265 19.6799 17.22C19.6799 11.3135 24.4334 6.56003 30.3399 6.56003ZM44.2799 6.56003H54.9399C60.8464 6.56003 65.5999 11.3135 65.5999 17.22C65.5999 23.1265 60.8464 27.88 54.9399 27.88H44.2799V6.56003ZM30.3399 31.16H40.9999V52.48H30.3399C24.4334 52.48 19.6799 47.7265 19.6799 41.82C19.6799 35.9135 24.4334 31.16 30.3399 31.16ZM44.2799 31.16H49.7637C47.4104 32.4001 45.52 34.2905 44.2799 36.6438V31.16ZM55.7599 32.8C61.2138 32.8 65.5999 37.1861 65.5999 42.64C65.5999 48.0939 61.2138 52.48 55.7599 52.48C50.306 52.48 45.9199 48.0939 45.9199 42.64C45.9199 37.1861 50.306 32.8 55.7599 32.8ZM30.3399 55.76H40.9999V66.42C40.9999 72.3265 36.2464 77.08 30.3399 77.08C24.4334 77.08 19.6799 72.3265 19.6799 66.42C19.6799 60.5135 24.4334 55.76 30.3399 55.76Z" fill="white"/>
</svg>
