<svg width="80" height="80" viewBox="0 0 80 80" fill="none" xmlns="http://www.w3.org/2000/svg">
<path d="M72.4375 3.7187C72.1376 3.38745 71.7063 3.19995 71.2563 3.19995H8.74379C8.29379 3.19995 7.86254 3.38745 7.56254 3.7187C7.25629 4.04995 7.10629 4.4937 7.15004 4.9437L12.7813 68.025C12.8375 68.6875 13.3 69.2375 13.9375 69.425L39.5563 76.7375C39.6938 76.7812 39.8438 76.8 39.9938 76.8C40.1438 76.8 40.2875 76.7812 40.4313 76.7375L66.0688 69.425C66.7063 69.2375 67.1625 68.6875 67.225 68.025L72.8501 4.9437C72.8938 4.4937 72.7438 4.04995 72.4375 3.7187ZM58.9563 25.4687H28.8563L29.575 33.6125H58.2313L56.0813 57.6812L39.9875 62.5437L39.8313 62.4937L23.925 57.675L23.0563 47.8687H30.85L31.1875 51.675L40.0813 53.5375L48.8125 51.675L49.7438 41.375H22.475L20.3563 17.6875H59.65L58.9563 25.4687Z" fill="white"/>
</svg>
