<svg width="96" height="96" viewBox="0 0 96 96" fill="none" xmlns="http://www.w3.org/2000/svg">
<path d="M27 12C18.751 12 12 18.751 12 27V69C12 77.249 18.751 84 27 84H69C77.249 84 84 77.249 84 69V27C84 18.751 77.249 12 69 12H27ZM27 18H69C74.007 18 78 21.993 78 27V69C78 74.007 74.007 78 69 78H27C21.993 78 18 74.007 18 69V27C18 21.993 21.993 18 27 18ZM41.9375 30C41.303 30.0129 40.6889 30.2267 40.1835 30.6106C39.6781 30.9946 39.3075 31.5289 39.125 32.1367L30.125 62.1367C30.0115 62.5143 29.9735 62.9105 30.0132 63.3028C30.0529 63.6951 30.1695 64.0757 30.3563 64.4229C30.5431 64.7701 30.7964 65.0771 31.1019 65.3263C31.4073 65.5756 31.7589 65.7623 32.1365 65.8757C32.5141 65.989 32.9104 66.0269 33.3026 65.9872C33.6949 65.9474 34.0754 65.8307 34.4226 65.6439C34.7698 65.457 35.0767 65.2036 35.3259 64.898C35.5751 64.5925 35.7617 64.2409 35.875 63.8633L37.0352 60H46.9648L48.125 63.8633C48.2383 64.2409 48.4249 64.5925 48.6741 64.898C48.9233 65.2036 49.2302 65.457 49.5774 65.6439C49.9246 65.8307 50.3051 65.9474 50.6974 65.9872C51.0896 66.0269 51.4859 65.989 51.8635 65.8757C52.2411 65.7623 52.5927 65.5756 52.8981 65.3263C53.2036 65.0771 53.4569 64.7701 53.6437 64.4229C53.8305 64.0757 53.9471 63.6951 53.9868 63.3028C54.0264 62.9105 53.9885 62.5143 53.875 62.1367L44.875 32.1367C44.6863 31.5084 44.2969 30.9592 43.7663 30.5733C43.2358 30.1874 42.5934 29.986 41.9375 30ZM61 33C59.9391 33 58.9217 33.4214 58.1716 34.1716C57.4214 34.9217 57 35.9391 57 37C57 38.0609 57.4214 39.0783 58.1716 39.8284C58.9217 40.5786 59.9391 41 61 41C62.0609 41 63.0783 40.5786 63.8284 39.8284C64.5786 39.0783 65 38.0609 65 37C65 35.9391 64.5786 34.9217 63.8284 34.1716C63.0783 33.4214 62.0609 33 61 33ZM42 43.4453L45.1641 54H38.8359L42 43.4453ZM60.9531 43.957C60.1582 43.9695 59.4006 44.2969 58.8469 44.8675C58.2932 45.438 57.9886 46.205 58 47V63C57.9944 63.3975 58.0678 63.7922 58.2161 64.1611C58.3643 64.53 58.5844 64.8658 58.8635 65.1489C59.1427 65.432 59.4753 65.6568 59.842 65.8103C60.2088 65.9637 60.6024 66.0427 61 66.0427C61.3976 66.0427 61.7912 65.9637 62.158 65.8103C62.5247 65.6568 62.8573 65.432 63.1365 65.1489C63.4156 64.8658 63.6357 64.53 63.7839 64.1611C63.9322 63.7922 64.0056 63.3975 64 63V47C64.0058 46.5985 63.9309 46.1999 63.7797 45.8278C63.6286 45.4558 63.4043 45.1178 63.1202 44.8341C62.836 44.5503 62.4978 44.3265 62.1256 44.1758C61.7533 44.0251 61.3546 43.9508 60.9531 43.957Z" fill="white"/>
</svg>
