<svg width="90" height="90" viewBox="0 0 90 90" fill="none" xmlns="http://www.w3.org/2000/svg">
<path d="M12.0025 7.19995C9.37285 7.19995 7.2002 9.37261 7.2002 12.0023V77.9976C7.2002 80.6273 9.37285 82.7999 12.0025 82.7999H77.9978C80.6275 82.7999 82.8002 80.6343 82.8002 77.9976V12.0023C82.8002 9.37261 80.6346 7.19995 77.9978 7.19995H12.0025ZM12.0025 10.8H77.9978C78.6658 10.8 79.2002 11.3343 79.2002 12.0023V77.9976C79.2002 78.6656 78.6658 79.2 77.9978 79.2H12.0025C11.3346 79.2 10.8002 78.6656 10.8002 77.9976V12.0023C10.8002 11.3343 11.3346 10.8 12.0025 10.8ZM41.4002 41.4V64.0335C41.4002 67.507 40.0854 68.3999 37.8002 68.3999C35.4096 68.3999 33.7502 66.9093 32.6533 64.9757L27.0002 68.3999C28.6385 71.8664 32.6533 75.6 38.2221 75.6C44.3814 75.6 48.6002 72.3234 48.6002 65.1304V41.4H41.4002ZM63.8158 41.4C57.6846 41.4 53.7541 45.3234 53.7541 50.4773C53.7541 56.0671 57.0518 58.7109 62.0088 60.8203L63.7244 61.5585C66.8533 62.9296 68.4002 63.7664 68.4002 66.1218C68.4002 68.0835 66.9096 69.5039 64.0619 69.5039C60.6728 69.5039 59.0697 67.2046 57.6002 64.7999L52.2002 68.3999C54.2182 72.3867 57.8393 75.6 64.2166 75.6C70.7416 75.6 75.6002 72.2109 75.6002 66.0304C75.6002 60.2929 72.3096 57.7406 66.4666 55.2374L64.751 54.5062C61.8049 53.2265 60.5252 52.3968 60.5252 50.3367C60.5252 48.6703 61.8049 47.3906 63.8158 47.3906C65.7916 47.3906 67.0572 48.2273 68.2314 50.3367L73.5822 46.9054C71.3252 42.9187 68.1822 41.4 63.8158 41.4Z" fill="white"/>
</svg>
