<svg width="96" height="96" viewBox="0 0 96 96" fill="none" xmlns="http://www.w3.org/2000/svg">
<path d="M27 12C18.751 12 12 18.751 12 27V69C12 77.249 18.751 84 27 84H69C77.249 84 84 77.249 84 69V27C84 18.751 77.249 12 69 12H27ZM27 18H69C74.007 18 78 21.993 78 27V69C78 74.007 74.007 78 69 78H27C21.993 78 18 74.007 18 69V27C18 21.993 21.993 18 27 18ZM32.9531 29.957C32.1582 29.9695 31.4006 30.2969 30.8469 30.8675C30.2932 31.438 29.9886 32.205 30 33V63C30.0001 63.7956 30.3162 64.5586 30.8788 65.1212C31.4414 65.6838 32.2044 65.9999 33 66H47C47.3975 66.0056 47.7922 65.9322 48.1611 65.7839C48.53 65.6357 48.8658 65.4156 49.1489 65.1365C49.432 64.8573 49.6568 64.5247 49.8103 64.158C49.9637 63.7912 50.0427 63.3976 50.0427 63C50.0427 62.6024 49.9637 62.2088 49.8103 61.842C49.6568 61.4753 49.432 61.1427 49.1489 60.8635C48.8658 60.5844 48.53 60.3643 48.1611 60.2161C47.7922 60.0678 47.3975 59.9944 47 60H36V33C36.0058 32.5985 35.9309 32.1999 35.7797 31.8278C35.6286 31.4558 35.4043 31.1178 35.1202 30.8341C34.836 30.5503 34.4978 30.3265 34.1256 30.1758C33.7533 30.0252 33.3546 29.9508 32.9531 29.957ZM56.9531 41.957C56.1582 41.9695 55.4006 42.2969 54.8469 42.8675C54.2932 43.438 53.9886 44.205 54 45V53V63C53.9944 63.3975 54.0678 63.7922 54.2161 64.1611C54.3643 64.53 54.5844 64.8658 54.8635 65.1489C55.1427 65.432 55.4753 65.6568 55.842 65.8103C56.2088 65.9637 56.6024 66.0427 57 66.0427C57.3976 66.0427 57.7912 65.9637 58.158 65.8103C58.5247 65.6568 58.8573 65.432 59.1365 65.1489C59.4156 64.8658 59.6357 64.53 59.7839 64.1611C59.9322 63.7922 60.0056 63.3975 60 63V53C60 50.2035 62.2035 48 65 48H67C67.3975 48.0056 67.7922 47.9322 68.1611 47.7839C68.53 47.6357 68.8658 47.4156 69.1489 47.1365C69.432 46.8573 69.6568 46.5247 69.8103 46.158C69.9637 45.7912 70.0427 45.3976 70.0427 45C70.0427 44.6024 69.9637 44.2088 69.8103 43.842C69.6568 43.4753 69.432 43.1427 69.1489 42.8635C68.8658 42.5844 68.53 42.3643 68.1611 42.2161C67.7922 42.0678 67.3975 41.9944 67 42H65C63.0303 42 61.2735 42.6693 59.668 43.5898C59.4129 43.0915 59.0234 42.6745 58.5436 42.3859C58.0639 42.0974 57.5129 41.9488 56.9531 41.957Z" fill="white"/>
</svg>
