<svg width="96" height="96" viewBox="0 0 96 96" fill="none" xmlns="http://www.w3.org/2000/svg">
<path d="M27 12C18.751 12 12 18.751 12 27V69C12 77.249 18.751 84 27 84H69C77.249 84 84 77.249 84 69V27C84 18.751 77.249 12 69 12H27ZM27 18H69C74.007 18 78 21.993 78 27V69C78 74.007 74.007 78 69 78H27C21.993 78 18 74.007 18 69V27C18 21.993 21.993 18 27 18ZM33 30C32.2044 30.0001 31.4414 30.3162 30.8788 30.8788C30.3162 31.4414 30.0001 32.2044 30 33V63C29.9944 63.3975 30.0678 63.7922 30.2161 64.1611C30.3643 64.53 30.5844 64.8658 30.8635 65.1489C31.1427 65.432 31.4753 65.6568 31.842 65.8103C32.2088 65.9637 32.6024 66.0427 33 66.0427C33.3976 66.0427 33.7912 65.9637 34.158 65.8103C34.5247 65.6568 34.8573 65.432 35.1365 65.1489C35.4156 64.8658 35.6357 64.53 35.7839 64.1611C35.9322 63.7922 36.0056 63.3975 36 63V52H38C44.0395 52 49 47.0395 49 41C49 34.9605 44.0395 30 38 30H33ZM36 36H38C40.7965 36 43 38.2035 43 41C43 43.7965 40.7965 46 38 46H36V36ZM58.1016 42C53.9953 42 50.6016 45.3937 50.6016 49.5C50.6016 53.6063 53.9953 57 58.1016 57H60.5C61.3657 57 62 57.6343 62 58.5C62 59.3657 61.3657 60 60.5 60H56.1992C55.9303 60 55.7184 59.9074 55.5391 59.75C55.5038 59.7191 55.4687 59.688 55.4453 59.6602C55.197 59.3435 54.8876 59.0799 54.5353 58.8853C54.1831 58.6906 53.7954 58.5688 53.3951 58.5271C52.9948 58.4854 52.5903 58.5247 52.2055 58.6425C51.8207 58.7604 51.4636 58.9544 51.1553 59.2131C50.8471 59.4718 50.594 59.7899 50.4112 60.1484C50.2284 60.5069 50.1196 60.8985 50.0913 61.3C50.0629 61.7014 50.1156 62.1044 50.2463 62.4851C50.3769 62.8657 50.5827 63.2162 50.8516 63.5156C51.0801 63.7877 51.3253 64.0366 51.582 64.2617C52.8107 65.3403 54.4441 66 56.1992 66H60.5C64.6063 66 68 62.6063 68 58.5C68 54.3937 64.6063 51 60.5 51H58.1016C57.2358 51 56.6016 50.3657 56.6016 49.5C56.6016 48.6343 57.2358 48 58.1016 48H60.8008C61.2547 48 61.5944 48.2734 61.7344 48.6406C61.8679 49.0177 62.0755 49.3642 62.345 49.6599C62.6144 49.9555 62.9402 50.1943 63.3033 50.3622C63.6664 50.5301 64.0594 50.6237 64.4591 50.6375C64.8589 50.6512 65.2574 50.5849 65.6312 50.4425C66.005 50.3 66.3465 50.0842 66.6356 49.8078C66.9248 49.5314 67.1558 49.2 67.315 48.833C67.4742 48.4661 67.5584 48.071 67.5627 47.671C67.5669 47.271 67.4912 46.8742 67.3398 46.5039C66.3318 43.8592 63.7588 42 60.8008 42H58.1016Z" fill="white"/>
</svg>
