<svg width="100" height="100" viewBox="0 0 100 100" fill="none" xmlns="http://www.w3.org/2000/svg">
<path d="M50 24C37.0156 24 25.2422 26.7188 16.5469 31.2578C7.85156 35.7969 2 42.3359 2 50C2 57.6641 7.85156 64.2031 16.5469 68.7422C25.2422 73.2812 37.0156 76 50 76C62.9844 76 74.7578 73.2812 83.4531 68.7422C92.1484 64.2031 98 57.6641 98 50C98 42.3359 92.1484 35.7969 83.4531 31.2578C74.7578 26.7188 62.9844 24 50 24ZM50 28C62.4219 28 73.6484 30.6484 81.6016 34.8047C89.5547 38.9531 94 44.4062 94 50C94 55.5938 89.5547 61.0469 81.6016 65.1953C73.6484 69.3516 62.4219 72 50 72C37.5781 72 26.3516 69.3516 18.3984 65.1953C10.4453 61.0469 6 55.5938 6 50C6 44.4062 10.4453 38.9531 18.3984 34.8047C26.3516 30.6484 37.5781 28 50 28ZM45.0156 32L40 56H45.25L47.7812 44H51.9766C53.3125 44 54.2031 44.2188 54.6172 44.6641C55.0234 45.1094 55.1094 45.9531 54.875 47.1641L52.9609 56H58.2891L60.3672 46.4453C60.8125 44.1562 60.4766 42.4766 59.3672 41.4531C58.2344 40.4141 56.2422 40 53.2734 40H48.5938L50.2578 32H45.0156ZM22 40L17.9453 62H23.2344L24.2891 56H27.5859C34.4766 56 38.2266 54.4062 39.625 48.4922C40.8281 43.4062 37.75 40 32.6641 40H22ZM64 40L59.9453 62H65.2344L66.2891 56H69.5859C76.4766 56 80.2266 54.4062 81.625 48.4922C82.8281 43.4062 79.75 40 74.6641 40H64ZM26.5469 44H30.6641C34.0859 44 34.8047 45.5391 34.625 47.25C34.1641 51.6641 31.4141 52 28.4609 52H25.0312L26.5469 44ZM68.5469 44H72.6641C76.0859 44 76.8047 45.5391 76.625 47.25C76.1641 51.6641 73.4141 52 70.4609 52H67.0312L68.5469 44Z" fill="white"/>
</svg>
