<svg width="100" height="100" viewBox="0 0 100 100" fill="none" xmlns="http://www.w3.org/2000/svg">
<path d="M30 10C18.9773 10 10 18.9773 10 30V70C10 81.0227 18.9773 90 30 90H70C81.0227 90 90 81.0227 90 70V30C90 18.9773 81.0227 10 70 10H30ZM30 14H70C78.8613 14 86 21.1387 86 30V70C86 78.8613 78.8613 86 70 86H30C21.1387 86 14 78.8613 14 70V30C14 21.1387 21.1387 14 30 14ZM52 24C41.0466 24 32.1226 32.8691 32.0117 43.7969C32.0044 43.8643 32.0005 43.9321 32 44V71C32 74.8424 35.1576 78 39 78C42.8424 78 46 74.8424 46 71V63.0742C47.8958 63.6726 49.9099 64 52 64C63.022 64 72 55.022 72 44C72 32.978 63.022 24 52 24ZM52 28C60.8603 28 68 35.1398 68 44C68 52.8602 60.8603 60 52 60C43.1397 60 36 52.8602 36 44C36 35.1398 43.1397 28 52 28ZM52 34C48.8333 34 46.2038 35.2595 44.5039 37.1719C42.804 39.0842 42 41.5556 42 44C42 46.4444 42.804 48.9158 44.5039 50.8281C46.2038 52.7405 48.8333 54 52 54C55.1667 54 57.7962 52.7405 59.4961 50.8281C61.196 48.9158 62 46.4444 62 44C62 41.5556 61.196 39.0842 59.4961 37.1719C57.7962 35.2595 55.1667 34 52 34ZM52 38C54.1667 38 55.5371 38.7405 56.5039 39.8281C57.4707 40.9158 58 42.4444 58 44C58 45.5556 57.4707 47.0842 56.5039 48.1719C55.5371 49.2595 54.1667 50 52 50C49.8333 50 48.4629 49.2595 47.4961 48.1719C46.5293 47.0842 46 45.5556 46 44C46 42.4444 46.5293 40.9158 47.4961 39.8281C48.4629 38.7405 49.8333 38 52 38ZM36 55.9453C37.6183 58.1065 39.6553 59.9309 42 61.293V71C42 72.6816 40.6816 74 39 74C37.3184 74 36 72.6816 36 71V55.9453Z" fill="white"/>
</svg>
