<svg width="96" height="96" viewBox="0 0 96 96" fill="none" xmlns="http://www.w3.org/2000/svg">
<path d="M27 12C18.751 12 12 18.751 12 27V69C12 77.249 18.751 84 27 84H69C77.249 84 84 77.249 84 69V27C84 18.751 77.249 12 69 12H27ZM27 18H69C74.007 18 78 21.993 78 27V69C78 74.007 74.007 78 69 78H27C21.993 78 18 74.007 18 69V27C18 21.993 21.993 18 27 18Z" fill="white"/>
<path d="M28 32V64H34.6953V52.4609H39.1562C43.9962 52.4609 49.2069 49.8619 49.2109 42.4219C49.2109 40.5619 48.0931 32 38.7891 32H28ZM34.6953 37.2109H39.1562C41.7642 37.2109 42.8868 39.8139 42.8828 42.4219C42.8828 45.0259 42.1322 47.2578 39.1562 47.2578H34.6953V37.2109ZM65.5781 39.5312C63.0781 39.5312 61.7422 41.7262 61.2422 42.7422L61.0547 40H54.7969V64H61.4531V48.6016C61.7651 47.8176 62.5848 46.2109 65.1328 46.2109C65.4448 46.2109 67.0477 46.3664 67.3438 46.3984L67.4062 39.8359C67.1863 39.7439 66.6741 39.5312 65.5781 39.5312Z" fill="white"/>
</svg>
