<svg width="80" height="80" viewBox="0 0 80 80" fill="none" xmlns="http://www.w3.org/2000/svg">
<path d="M40 3.19995C33.5062 3.19995 29.1 4.74995 26.3 6.99995C23.5 9.24995 22.4 12.1437 22.4 14.55V22.4H38.4V24H14.55C11.625 24 8.6562 25.2687 6.54995 27.95C4.4437 30.6312 3.19995 34.6312 3.19995 40C3.19995 45.3687 4.4437 49.3687 6.54995 52.05C8.6562 54.7312 11.625 56 14.55 56H22.4V65.45C22.4 67.8562 23.5 70.75 26.3 73C29.1 75.25 33.5062 76.7999 40 76.7999C46.4937 76.7999 50.9 75.25 53.7 73C56.5 70.75 57.6 67.8562 57.6 65.45V57.6H41.6V56H65.45C68.375 56 71.3437 54.7312 73.45 52.05C75.5562 49.3687 76.7999 45.3687 76.7999 40C76.7999 34.6312 75.5562 30.6312 73.45 27.95C71.3437 25.2687 68.375 24 65.45 24H57.6V14.55C57.6 12.0812 56.5062 9.1812 53.7 6.94995C50.8937 4.7187 46.4875 3.19995 40 3.19995ZM40 6.39995C45.9937 6.39995 49.625 7.79995 51.7 9.44995C53.775 11.1 54.4 13.0187 54.4 14.55V33.6C54.4 36.25 52.25 38.4 49.6 38.4H30.4C27.1062 38.4 24.2687 40.4312 23.05 43.3C22.8437 43.775 22.6562 44.2812 22.55 44.8C22.4437 45.3187 22.4 45.85 22.4 46.4V52.8H14.55C12.5187 52.8 10.6375 52.0062 9.09995 50.05C7.56245 48.0937 6.39995 44.8687 6.39995 40C6.39995 35.1312 7.56245 31.9062 9.09995 29.95C10.6375 27.9937 12.5187 27.2 14.55 27.2H41.6V19.2H25.6V14.55C25.6 13.1187 26.2187 11.1687 28.3 9.49995C30.3812 7.8312 34.0125 6.39995 40 6.39995ZM32 11.2C30.2375 11.2 28.8 12.6375 28.8 14.4C28.8 16.1625 30.2375 17.6 32 17.6C33.7625 17.6 35.2 16.1625 35.2 14.4C35.2 12.6375 33.7625 11.2 32 11.2ZM57.6 27.2H65.45C67.4812 27.2 69.3624 27.9937 70.9 29.95C72.4375 31.9062 73.6 35.1312 73.6 40C73.6 44.8687 72.4375 48.0937 70.9 50.05C69.3624 52.0062 67.4812 52.8 65.45 52.8H38.4V60.8H54.4V65.45C54.4 66.8812 53.7812 68.8312 51.7 70.5C49.6187 72.1687 45.9875 73.6 40 73.6C34.0125 73.6 30.3812 72.1687 28.3 70.5C26.2187 68.8312 25.6 66.8812 25.6 65.45V46.4C25.6 46.0687 25.6375 45.7625 25.7 45.45C26.15 43.2625 28.0812 41.6 30.4 41.6H49.6C53.9937 41.6 57.6 37.9937 57.6 33.6V27.2ZM48 62.4C46.2375 62.4 44.8 63.8375 44.8 65.6C44.8 67.3624 46.2375 68.7999 48 68.7999C49.7625 68.7999 51.2 67.3624 51.2 65.6C51.2 63.8375 49.7625 62.4 48 62.4Z" fill="white"/>
</svg>
