<svg width="90" height="90" viewBox="0 0 90 90" fill="none" xmlns="http://www.w3.org/2000/svg">
<path fill-rule="evenodd" clip-rule="evenodd" d="M62.1985 7.17177C60.7951 7.12458 59.3261 7.36926 57.8532 7.84677C54.9075 8.80179 51.8207 10.6629 48.6528 13.2397C47.4114 14.2496 46.1586 15.404 44.9017 16.6288C43.6724 15.4351 42.4454 14.3117 41.2313 13.3241C38.0661 10.7493 34.9876 8.88752 32.0485 7.93466C29.1095 6.9818 26.1851 6.95228 23.7833 8.33896C21.3815 9.72564 19.9452 12.2711 19.3009 15.2929C18.6565 18.3146 18.7275 21.9131 19.3747 25.9417C19.5995 27.341 19.9201 28.809 20.2853 30.3046C18.9129 30.7205 17.5801 31.1578 16.3442 31.6405C12.6145 33.0973 9.5283 34.8401 7.28096 36.914C5.03361 38.9878 3.58252 41.5048 3.58252 44.2686C3.58252 47.0324 5.03361 49.5459 7.28096 51.6198C9.5283 53.6937 12.6145 55.44 16.3442 56.8968C17.6658 57.4129 19.0965 57.8777 20.5735 58.3171C20.0423 60.3022 19.6118 62.2285 19.3185 64.0546C18.6708 68.0864 18.6024 71.6854 19.2481 74.714C19.8939 77.7425 21.331 80.3025 23.7446 81.696C26.1583 83.0895 29.0958 83.0553 32.0415 82.1003C34.9872 81.1453 38.0705 79.2877 41.2384 76.7108C42.4684 75.7103 43.7127 74.5689 44.9579 73.3569C46.2097 74.5762 47.4589 75.7229 48.695 76.7284C51.8603 79.3032 54.9423 81.1615 57.8814 82.1143C60.8204 83.0672 63.7448 83.0967 66.1466 81.7101C68.5484 80.3234 69.9812 77.7779 70.6255 74.7561C71.2698 71.7344 71.1988 68.1394 70.5517 64.1108C70.2575 62.2798 69.8268 60.3471 69.2931 58.3558C70.8189 57.9057 72.2948 57.4284 73.656 56.8968C77.3857 55.44 80.4719 53.6937 82.7192 51.6198C84.9666 49.5459 86.4177 47.0324 86.4177 44.2686C86.4177 41.5048 84.9666 38.9878 82.7192 36.914C80.4719 34.8401 77.3857 33.0973 73.656 31.6405C72.4023 31.1509 71.0491 30.7079 69.6552 30.287C70.0233 28.7823 70.3501 27.3037 70.5763 25.896C71.224 21.8641 71.2924 18.2617 70.6466 15.2331C70.0008 12.2045 68.5603 9.64812 66.1466 8.25458C64.9397 7.55782 63.602 7.21896 62.1985 7.17177ZM62.0333 10.8351C62.914 10.8591 63.6653 11.0687 64.3079 11.4397C65.5932 12.1818 66.5433 13.6261 67.0501 16.003C67.5569 18.38 67.5394 21.5915 66.9411 25.3159C66.7363 26.5911 66.4388 27.9425 66.1009 29.3272C62.419 28.4411 58.3844 27.7836 54.0845 27.3972C51.9258 24.4067 49.7078 21.6823 47.4716 19.2655C48.6544 18.1109 49.8296 17.031 50.9767 16.0979C53.9029 13.7176 56.6733 12.0979 58.9853 11.3483C60.1412 10.9736 61.1526 10.811 62.0333 10.8351ZM27.8755 10.8456C28.7613 10.8209 29.7748 10.983 30.9341 11.3589C33.2527 12.1106 36.0279 13.7296 38.9567 16.112C40.0808 17.0263 41.2296 18.0857 42.388 19.2128C40.1352 21.6493 37.8988 24.3973 35.7259 27.4147C31.4441 27.8082 27.426 28.4693 23.7622 29.3589C23.4268 27.9819 23.1293 26.6373 22.9255 25.3686C22.3267 21.641 22.3117 18.429 22.82 16.0452C23.3283 13.6614 24.2861 12.2062 25.5833 11.4573C26.2319 11.0829 26.9897 10.8703 27.8755 10.8456ZM44.9579 21.8565C46.4242 23.4522 47.8908 25.1984 49.3454 27.0772C47.9162 27.0176 46.4694 26.9823 45.0001 26.9823C43.5015 26.9823 42.0272 27.0188 40.5704 27.0808C42.0253 25.2004 43.4912 23.4534 44.9579 21.8565ZM45.0001 30.6175C47.4479 30.6175 49.8337 30.7181 52.1544 30.8882C53.7512 33.1817 55.3117 35.6148 56.7985 38.1901C58.105 40.453 59.2873 42.7124 60.3634 44.9436C59.2759 47.2045 58.0738 49.4944 56.7493 51.7886C55.5834 53.808 54.3658 55.726 53.1282 57.5753C50.5069 57.7944 47.7906 57.9163 45.0001 57.9163C42.1424 57.9163 39.3651 57.7872 36.6856 57.5577C35.4686 55.735 34.2716 53.8461 33.1243 51.8589C31.8028 49.57 30.6065 47.2842 29.5208 45.028C30.6111 42.7591 31.8128 40.4606 33.1419 38.1585C34.621 35.5967 36.1769 33.1776 37.7649 30.8952C40.1106 30.7213 42.5241 30.6175 45.0001 30.6175ZM56.788 31.3382C59.7552 31.7084 62.5412 32.2224 65.1341 32.8393C64.3647 35.3614 63.4171 37.9957 62.2688 40.7143C61.5233 39.2772 60.7512 37.8351 59.9169 36.3901C58.9059 34.639 57.8528 32.9694 56.788 31.3382ZM33.0188 31.3663C31.9765 32.9671 30.9508 34.6041 29.9603 36.3198C29.1153 37.7834 28.3271 39.2448 27.5731 40.7003C26.4348 37.998 25.4929 35.3787 24.729 32.871C27.3025 32.2529 30.0723 31.7408 33.0188 31.3663ZM68.6954 33.7956C69.9714 34.1817 71.2037 34.5846 72.3341 35.0261C75.7724 36.369 78.4921 37.9592 80.2548 39.5858C82.0175 41.2125 82.7825 42.7637 82.7825 44.2686C82.7825 45.7735 82.0175 47.3248 80.2548 48.9515C78.4921 50.5781 75.7724 52.1683 72.3341 53.5112C71.078 54.0018 69.6978 54.4467 68.263 54.8683C67.2395 51.7024 65.933 48.3997 64.3782 45.028C66.1659 41.157 67.6101 37.3828 68.6954 33.7956ZM21.245 33.8132C22.3179 37.3646 23.7436 41.1013 25.506 44.9331C23.9409 48.3244 22.6281 51.646 21.6001 54.8296C20.2158 54.4191 18.8825 53.9863 17.6661 53.5112C14.2278 52.1683 11.5081 50.5781 9.74541 48.9515C7.98269 47.3248 7.21768 45.7735 7.21768 44.2686C7.21768 42.7637 7.98269 41.2125 9.74541 39.5858C11.5081 37.9592 14.2278 36.369 17.6661 35.0261C18.7791 34.5914 19.9907 34.1942 21.245 33.8132ZM45.0001 35.9999C40.0509 35.9999 36.0001 40.0507 36.0001 44.9999C36.0001 49.9491 40.0509 53.9999 45.0001 53.9999C49.9493 53.9999 54.0001 49.9491 54.0001 44.9999C54.0001 40.0507 49.9493 35.9999 45.0001 35.9999ZM27.6153 49.2573C28.3726 50.72 29.1601 52.1878 30.0095 53.6589C30.674 54.8098 31.3526 55.9302 32.0415 57.0304C29.6242 56.6952 27.3263 56.2708 25.1685 55.7683C25.8547 53.6665 26.6756 51.4849 27.6153 49.2573ZM62.3146 49.2573C63.258 51.4902 64.0794 53.6753 64.7685 55.7823C62.6038 56.2843 60.2988 56.7072 57.8743 57.0409C58.5722 55.9273 59.2615 54.7929 59.9345 53.6272C60.7776 52.167 61.562 50.7093 62.3146 49.2573ZM24.1313 59.2628C27.389 60.0345 30.92 60.6273 34.6642 61.0136C37.1636 64.6286 39.7674 67.877 42.388 70.7167C41.2162 71.8592 40.0547 72.9315 38.9181 73.8561C35.9918 76.2365 33.2179 77.8527 30.906 78.6022C28.594 79.3518 26.8686 79.2529 25.5833 78.5108C24.298 77.7688 23.3515 76.3245 22.8446 73.9475C22.3378 71.5706 22.3518 68.3626 22.9501 64.6382C23.2215 62.9486 23.6272 61.1394 24.1313 59.2628ZM65.8091 59.2768C66.3175 61.1649 66.7243 62.9807 66.9974 64.6804C67.5962 68.408 67.6111 71.62 67.1028 74.0038C66.5945 76.3876 65.6438 77.8463 64.3466 78.5952C63.0494 79.3441 61.3074 79.4418 58.9888 78.6901C56.6702 77.9384 53.8949 76.3194 50.9661 73.937C49.8213 73.0058 48.6518 71.9248 47.4716 70.7729C50.1097 67.9222 52.7319 64.6573 55.2481 61.0206C59.0018 60.6369 62.5425 60.0477 65.8091 59.2768ZM39.361 61.3827C41.2092 61.4834 43.0817 61.5515 45.0001 61.5515C46.855 61.5515 48.6668 61.4875 50.4563 61.3933C48.627 63.8614 46.7624 66.1052 44.9052 68.1257C43.0491 66.1008 41.188 63.853 39.361 61.3827Z" fill="white"/>
</svg>
