<svg width="94" height="94" viewBox="0 0 94 94" fill="none" xmlns="http://www.w3.org/2000/svg">
<path d="M47.0001 18.8079C36.055 18.8079 28.6956 23.5842 24.9179 33.1389C24.5263 34.1279 25.7346 34.9406 26.5159 34.218C30.5011 30.5324 34.9799 29.3124 39.9501 30.5539C43.526 31.4469 46.0816 34.0417 48.9114 36.9127C53.5174 41.5872 58.85 47 70.5001 47C81.4452 47 88.8066 42.2217 92.5823 32.667C92.9739 31.678 91.7656 30.8653 90.9843 31.5879C86.9991 35.2735 82.5203 36.4955 77.5501 35.2539C73.9761 34.3609 71.4205 31.7662 68.5907 28.8952C63.9828 24.2187 58.6483 18.8079 47.0001 18.8079ZM23.5001 47C12.555 47 5.1936 51.7784 1.41794 61.3331C1.02627 62.322 2.23456 63.1347 3.01594 62.4121C7.00115 58.7265 11.4799 57.5045 16.4501 58.7481C20.0241 59.643 22.5797 62.2359 25.4095 65.1048C30.0174 69.7813 35.3519 75.1942 47.0001 75.1942C57.9452 75.1942 65.3066 70.4158 69.0823 60.8611C69.4739 59.8722 68.2656 59.0594 67.4843 59.7821C63.4991 63.4677 59.0204 64.6897 54.0501 63.4461C50.4742 62.5531 47.9186 59.9583 45.0888 57.0894C40.4828 52.4129 35.1502 47 23.5001 47Z" fill="white"/>
</svg>
