<svg width="80" height="80" viewBox="0 0 80 80" fill="none" xmlns="http://www.w3.org/2000/svg">
<path d="M0.249996 6.33342C-3.8892e-06 7.08342 0.333329 8.66676 0.999996 9.91676C1.75 11.0834 10.4167 26.5834 20.4167 44.3334C33.5833 67.8334 38.9167 76.6667 40 76.6667C41.0833 76.6667 46.75 67.3334 60.75 42.3334C71.4167 23.5001 79.9167 7.41676 79.8333 6.75008C79.5833 5.58342 77.4167 5.41676 63.3333 5.41676H47.0833L43.75 11.4168C41.9167 14.7501 40.25 17.5001 40 17.5001C39.75 17.5001 38.0833 14.7501 36.25 11.4168L32.9167 5.41676L16.8333 5.16676C2.66666 5.00008 0.749996 5.08342 0.249996 6.33342ZM33.9167 17.2501C39.5833 27.1668 40.3333 27.2501 45.9167 17.5834L50.3333 10.0001H61.75H73.25L66.75 21.4168C63.25 27.7501 55.8333 40.9168 50.4167 50.5834C44.9167 60.3334 40.25 68.3334 40 68.3334C39.75 68.3334 35.0833 60.3334 29.5833 50.5834C24.1667 40.9168 16.75 27.7501 13.25 21.4168L6.75 10.0001H18.25H29.8333L33.9167 17.2501Z" fill="white"/>
</svg>
