<svg width="32" height="32" viewBox="0 0 32 32" fill="none" xmlns="http://www.w3.org/2000/svg">
<path d="M8.93828 26.9384L8.93831 26.9384L19.8787 16L8.93873 5.06196C8.93866 5.06189 8.93859 5.06182 8.93852 5.06175C8.79893 4.92246 8.68817 4.757 8.61259 4.57486C8.53697 4.39262 8.49805 4.19726 8.49805 3.99996C8.49805 3.80266 8.53697 3.60729 8.61259 3.42506C8.68821 3.24282 8.79904 3.07729 8.93873 2.93796L9.29183 3.29196L8.93783 2.93885C9.07717 2.79916 9.2427 2.68833 9.42493 2.61271C9.60717 2.53709 9.80253 2.49817 9.99983 2.49817C10.1971 2.49817 10.3925 2.53709 10.5747 2.61271C10.7569 2.68828 10.9223 2.79902 11.0616 2.93858C11.0617 2.93867 11.0617 2.93876 11.0618 2.93885L23.0609 14.938L8.93828 26.9384ZM8.93828 26.9384C8.65674 27.2199 8.49857 27.6018 8.49857 28C8.49857 28.3981 8.65674 28.78 8.93828 29.0615C9.21982 29.3431 9.60168 29.5012 9.99983 29.5012C10.398 29.5012 10.7798 29.3431 11.0614 29.0615L23.0609 17.062L8.93828 26.9384ZM23.3871 15.4251C23.3115 15.243 23.2009 15.0776 23.0614 14.9384V17.0615C23.2009 16.9223 23.3115 16.7569 23.3871 16.5749C23.4627 16.3926 23.5016 16.1973 23.5016 16C23.5016 15.8027 23.4627 15.6073 23.3871 15.4251Z" fill="black" stroke="black"/>
</svg>
