<svg width="32" height="32" viewBox="0 0 32 32" fill="none" xmlns="http://www.w3.org/2000/svg">
<path d="M23.0617 26.9384L23.0617 26.9384L12.1213 16L23.0613 5.06196C23.0613 5.06189 23.0614 5.06182 23.0615 5.06175C23.2011 4.92246 23.3118 4.757 23.3874 4.57486C23.463 4.39262 23.502 4.19726 23.502 3.99996C23.502 3.80266 23.463 3.60729 23.3874 3.42506C23.3118 3.24282 23.201 3.07729 23.0613 2.93796L22.7082 3.29196L23.0622 2.93885C22.9228 2.79916 22.7573 2.68833 22.5751 2.61271C22.3928 2.53709 22.1975 2.49817 22.0002 2.49817C21.8029 2.49817 21.6075 2.53709 21.4253 2.61271C21.2431 2.68828 21.0777 2.79902 20.9384 2.93858C20.9383 2.93867 20.9383 2.93876 20.9382 2.93885L8.93906 14.938L23.0617 26.9384ZM23.0617 26.9384C23.3433 27.2199 23.5014 27.6018 23.5014 28C23.5014 28.3981 23.3433 28.78 23.0617 29.0615C22.7802 29.3431 22.3983 29.5012 22.0002 29.5012C21.602 29.5012 21.2202 29.3431 20.9386 29.0615L8.93906 17.062L23.0617 26.9384ZM8.61292 15.4251C8.68846 15.243 8.79913 15.0776 8.93861 14.9384V17.0615C8.79913 16.9223 8.68846 16.7569 8.61292 16.5749C8.5373 16.3926 8.49838 16.1973 8.49838 16C8.49838 15.8027 8.5373 15.6073 8.61292 15.4251Z" fill="black" stroke="black"/>
</svg>
